<?xml version="1.0" encoding="UTF-8" standalone="no"?>
<svg
   xmlns:dc="http://purl.org/dc/elements/1.1/"
   xmlns:cc="http://creativecommons.org/ns#"
   xmlns:rdf="http://www.w3.org/1999/02/22-rdf-syntax-ns#"
   xmlns:svg="http://www.w3.org/2000/svg"
   xmlns="http://www.w3.org/2000/svg"
   xmlns:sodipodi="http://sodipodi.sourceforge.net/DTD/sodipodi-0.dtd"
   xmlns:inkscape="http://www.inkscape.org/namespaces/inkscape"
   version="1.1"
   id="svg2"
   xml:space="preserve"
   width="607.64532"
   height="412"
   viewBox="0 0 607.64533 412"
   sodipodi:docname="donna.eps"><metadata
     id="metadata8"><rdf:RDF><cc:Work
         rdf:about=""><dc:format>image/svg+xml</dc:format><dc:type
           rdf:resource="http://purl.org/dc/dcmitype/StillImage" /></cc:Work></rdf:RDF></metadata><defs
     id="defs6" /><sodipodi:namedview
     pagecolor="#ffffff"
     bordercolor="#666666"
     borderopacity="1"
     objecttolerance="10"
     gridtolerance="10"
     guidetolerance="10"
     inkscape:pageopacity="0"
     inkscape:pageshadow="2"
     inkscape:window-width="640"
     inkscape:window-height="480"
     id="namedview4" /><g
     id="g10"
     inkscape:groupmode="layer"
     inkscape:label="ink_ext_XXXXXX"
     transform="matrix(1.3333333,0,0,-1.3333333,-65.999998,477.99999)"><g
       id="g12"
       transform="scale(0.1)"><path
         d="M 600,3440 V 2240 h 1058.13"
         style="fill:none;stroke:#000000;stroke-width:10;stroke-linecap:butt;stroke-linejoin:miter;stroke-miterlimit:10;stroke-dasharray:none;stroke-opacity:1"
         id="path14" /><g
         id="g16"
         transform="scale(10)"><text
           transform="matrix(1,0,0,-1,60,227)"
           style="font-variant:normal;font-weight:normal;font-size:21px;font-family:'Times New Roman';-inkscape-font-specification:Times-Roman;writing-mode:lr-tb;fill:#000000;fill-opacity:1;fill-rule:nonzero;stroke:none"
           id="text20"><tspan
             x="0 6.993 17.493 26.816999 33.810001 39.647999 50.147999 59.472 75.809998"
             y="0"
             sodipodi:role="line"
             id="tspan18">foaf:name</tspan></text></g><path
         d="M 600,3440 V 2640 H 1658.13"
         style="fill:none;stroke:#000000;stroke-width:10;stroke-linecap:butt;stroke-linejoin:miter;stroke-miterlimit:10;stroke-dasharray:none;stroke-opacity:1"
         id="path22" /><g
         id="g24"
         transform="scale(10)"><text
           transform="matrix(1,0,0,-1,60,267)"
           style="font-variant:normal;font-weight:normal;font-size:21px;font-family:'Times New Roman';-inkscape-font-specification:Times-Roman;writing-mode:lr-tb;fill:#000000;fill-opacity:1;fill-rule:nonzero;stroke:none"
           id="text28"><tspan
             x="0 6.993 17.493 26.816999 33.810001 39.647999 55.986 66.486 76.986"
             y="0"
             sodipodi:role="line"
             id="tspan26">foaf:mbox</tspan></text></g><path
         d="M 600,3440 V 3040 H 1658.13"
         style="fill:none;stroke:#000000;stroke-width:10;stroke-linecap:butt;stroke-linejoin:miter;stroke-miterlimit:10;stroke-dasharray:none;stroke-opacity:1"
         id="path30" /><g
         id="g32"
         transform="scale(10)"><text
           transform="matrix(1,0,0,-1,60,307)"
           style="font-variant:normal;font-weight:normal;font-size:21px;font-family:'Times New Roman';-inkscape-font-specification:Times-Roman;writing-mode:lr-tb;fill:#000000;fill-opacity:1;fill-rule:nonzero;stroke:none"
           id="text36"><tspan
             x="0 6.993 17.493 26.816999 33.810001 39.647999 50.147999 55.986 65.309998"
             y="0"
             sodipodi:role="line"
             id="tspan34">foaf:nick</tspan></text></g><path
         d="M 600,1840 V 640 h 1174.84"
         style="fill:none;stroke:#000000;stroke-width:10;stroke-linecap:butt;stroke-linejoin:miter;stroke-miterlimit:10;stroke-dasharray:none;stroke-opacity:1"
         id="path38" /><g
         id="g40"
         transform="scale(10)"><text
           transform="matrix(1,0,0,-1,60,67)"
           style="font-variant:normal;font-weight:normal;font-size:21px;font-family:'Times New Roman';-inkscape-font-specification:Times-Roman;writing-mode:lr-tb;fill:#000000;fill-opacity:1;fill-rule:nonzero;stroke:none"
           id="text44"><tspan
             x="0 6.993 17.493 26.816999 33.810001 39.647999 50.147999 59.472 75.809998"
             y="0"
             sodipodi:role="line"
             id="tspan42">foaf:name</tspan></text></g><path
         d="M 600,1840 V 1040 H 1774.84"
         style="fill:none;stroke:#000000;stroke-width:10;stroke-linecap:butt;stroke-linejoin:miter;stroke-miterlimit:10;stroke-dasharray:none;stroke-opacity:1"
         id="path46" /><g
         id="g48"
         transform="scale(10)"><text
           transform="matrix(1,0,0,-1,60,107)"
           style="font-variant:normal;font-weight:normal;font-size:21px;font-family:'Times New Roman';-inkscape-font-specification:Times-Roman;writing-mode:lr-tb;fill:#000000;fill-opacity:1;fill-rule:nonzero;stroke:none"
           id="text52"><tspan
             x="0 6.993 17.493 26.816999 33.810001 39.647999 50.147999 55.986 65.309998"
             y="0"
             sodipodi:role="line"
             id="tspan50">foaf:nick</tspan></text></g><path
         d="M 600,1840 V 1440 H 1774.84"
         style="fill:none;stroke:#000000;stroke-width:10;stroke-linecap:butt;stroke-linejoin:miter;stroke-miterlimit:10;stroke-dasharray:none;stroke-opacity:1"
         id="path54" /><g
         id="g56"
         transform="scale(10)"><text
           transform="matrix(1,0,0,-1,60,147)"
           style="font-variant:normal;font-weight:normal;font-size:21px;font-family:'Times New Roman';-inkscape-font-specification:Times-Roman;writing-mode:lr-tb;fill:#000000;fill-opacity:1;fill-rule:nonzero;stroke:none"
           id="text60"><tspan
             x="0 6.993 17.493 26.816999 33.810001 39.647999 55.986 66.486 76.986"
             y="0"
             sodipodi:role="line"
             id="tspan58">foaf:mbox</tspan></text></g><path
         d="m 500,1700 h 776.56 v 280 H 500 v -280 h 776.56"
         style="fill:#e6e6cc;fill-opacity:1;fill-rule:nonzero;stroke:none"
         id="path62" /><path
         d="m 500,1700 h 776.56 v 280 H 500 v -280 h 776.56"
         style="fill:none;stroke:#000000;stroke-width:10;stroke-linecap:butt;stroke-linejoin:miter;stroke-miterlimit:10;stroke-dasharray:none;stroke-opacity:1"
         id="path64" /><g
         id="g66"
         transform="scale(10)"><text
           transform="matrix(1,0,0,-1,55,177)"
           style="font-variant:normal;font-weight:normal;font-size:21px;font-family:'Times New Roman';-inkscape-font-specification:Times-Roman;writing-mode:lr-tb;fill:#000000;fill-opacity:1;fill-rule:nonzero;stroke:none"
           id="text70"><tspan
             x="0 5.8379998 15.162 25.662001 40.824001 50.147999 57.140999"
             y="0"
             sodipodi:role="line"
             id="tspan68">:edward</tspan></text></g><path
         d="M 1674.84,500 H 3748.91 V 780 H 1674.84 V 500 h 2074.07"
         style="fill:#e6cce6;fill-opacity:1;fill-rule:nonzero;stroke:none"
         id="path72" /><path
         d="M 1674.84,500 H 3748.91 V 780 H 1674.84 V 500 h 2074.07"
         style="fill:none;stroke:#000000;stroke-width:10;stroke-linecap:butt;stroke-linejoin:miter;stroke-miterlimit:10;stroke-dasharray:none;stroke-opacity:1"
         id="path74" /><g
         id="g76"
         transform="scale(10)"><text
           transform="matrix(1,0,0,-1,172.484,57)"
           style="font-variant:normal;font-weight:normal;font-size:21px;font-family:'Times New Roman';-inkscape-font-specification:Times-Roman;writing-mode:lr-tb;fill:#000000;fill-opacity:1;fill-rule:nonzero;stroke:none"
           id="text80"><tspan
             x="0 8.5679998 21.399 31.899 47.061001 56.384998 63.377998 73.877998 79.127998 90.804001 100.128 105.966 114.135 122.304 132.804 139.797 150.297 159.621 170.121 180.621 188.78999"
             y="0"
             sodipodi:role="line"
             id="tspan78">&quot;Edward Scissorhands&quot;</tspan></text></g><path
         d="m 1674.84,900 h 1495.32 v 280 H 1674.84 V 900 h 1495.32"
         style="fill:#e6cce6;fill-opacity:1;fill-rule:nonzero;stroke:none"
         id="path82" /><path
         d="m 1674.84,900 h 1495.32 v 280 H 1674.84 V 900 h 1495.32"
         style="fill:none;stroke:#000000;stroke-width:10;stroke-linecap:butt;stroke-linejoin:miter;stroke-miterlimit:10;stroke-dasharray:none;stroke-opacity:1"
         id="path84" /><g
         id="g86"
         transform="scale(10)"><text
           transform="matrix(1,0,0,-1,172.484,97)"
           style="font-variant:normal;font-weight:normal;font-size:21px;font-family:'Times New Roman';-inkscape-font-specification:Times-Roman;writing-mode:lr-tb;fill:#000000;fill-opacity:1;fill-rule:nonzero;stroke:none"
           id="text90"><tspan
             x="0 8.5679998 17.892 28.392 36.959999 46.808998 56.658001 67.157997 75.327003 85.827003 91.665001 99.834 105.672 112.665 118.503 129.00301"
             y="0"
             sodipodi:role="line"
             id="tspan88">&quot;ed&quot;^^xsd:string</tspan></text></g><path
         d="m 1674.84,1300 h 3372.5 v 280 h -3372.5 v -280 h 3372.5"
         style="fill:#e6e6cc;fill-opacity:1;fill-rule:nonzero;stroke:none"
         id="path92" /><path
         d="m 1674.84,1300 h 3372.5 v 280 h -3372.5 v -280 h 3372.5"
         style="fill:none;stroke:#000000;stroke-width:10;stroke-linecap:butt;stroke-linejoin:miter;stroke-miterlimit:10;stroke-dasharray:none;stroke-opacity:1"
         id="path94" /><g
         id="g96"
         transform="scale(10)"><text
           transform="matrix(1,0,0,-1,172.484,137)"
           style="font-variant:normal;font-weight:normal;font-size:21px;font-family:'Times New Roman';-inkscape-font-specification:Times-Roman;writing-mode:lr-tb;fill:#000000;fill-opacity:1;fill-rule:nonzero;stroke:none"
           id="text100"><tspan
             x="0 11.844 28.181999 37.506001 43.344002 49.181999 55.02 65.519997 71.358002 80.681999 85.931999 94.100998 103.425 109.263 117.432 125.601 136.101 143.09399 153.59399 162.918 173.418 183.918 192.08701 211.42799 220.752 231.252 240.576 256.914 267.414 273.25201 282.57599 287.82599 298.32599 305.319 315.819"
             y="0"
             sodipodi:role="line"
             id="tspan98">&lt;mailto:e.scissorhands@example.org&gt;</tspan></text></g><path
         d="m 500,3300 h 671.56 v 280 H 500 v -280 h 671.56"
         style="fill:#e6e6cc;fill-opacity:1;fill-rule:nonzero;stroke:none"
         id="path102" /><path
         d="m 500,3300 h 671.56 v 280 H 500 v -280 h 671.56"
         style="fill:none;stroke:#000000;stroke-width:10;stroke-linecap:butt;stroke-linejoin:miter;stroke-miterlimit:10;stroke-dasharray:none;stroke-opacity:1"
         id="path104" /><g
         id="g106"
         transform="scale(10)"><text
           transform="matrix(1,0,0,-1,55,337)"
           style="font-variant:normal;font-weight:normal;font-size:21px;font-family:'Times New Roman';-inkscape-font-specification:Times-Roman;writing-mode:lr-tb;fill:#000000;fill-opacity:1;fill-rule:nonzero;stroke:none"
           id="text110"><tspan
             x="0 5.8379998 16.337999 26.837999 37.338001 47.838001"
             y="0"
             sodipodi:role="line"
             id="tspan108">:donna</tspan></text></g><path
         d="m 1558.13,2100 h 1327.34 v 280 H 1558.13 v -280 h 1327.34"
         style="fill:#e6cce6;fill-opacity:1;fill-rule:nonzero;stroke:none"
         id="path112" /><path
         d="m 1558.13,2100 h 1327.34 v 280 H 1558.13 v -280 h 1327.34"
         style="fill:none;stroke:#000000;stroke-width:10;stroke-linecap:butt;stroke-linejoin:miter;stroke-miterlimit:10;stroke-dasharray:none;stroke-opacity:1"
         id="path114" /><g
         id="g116"
         transform="scale(10)"><text
           transform="matrix(1,0,0,-1,160.813,217)"
           style="font-variant:normal;font-weight:normal;font-size:21px;font-family:'Times New Roman';-inkscape-font-specification:Times-Roman;writing-mode:lr-tb;fill:#000000;fill-opacity:1;fill-rule:nonzero;stroke:none"
           id="text120"><tspan
             x="0 8.5679998 23.73 34.23 44.73 55.23 64.554001 69.804001 81.480003 90.804001 96.641998 105.966 114.135"
             y="0"
             sodipodi:role="line"
             id="tspan118">&quot;Donna Fales&quot;</tspan></text></g><path
         d="m 1558.13,2500 h 2678.28 v 280 H 1558.13 v -280 h 2678.28"
         style="fill:#e6e6cc;fill-opacity:1;fill-rule:nonzero;stroke:none"
         id="path122" /><path
         d="m 1558.13,2500 h 2678.28 v 280 H 1558.13 v -280 h 2678.28"
         style="fill:none;stroke:#000000;stroke-width:10;stroke-linecap:butt;stroke-linejoin:miter;stroke-miterlimit:10;stroke-dasharray:none;stroke-opacity:1"
         id="path124" /><g
         id="g126"
         transform="scale(10)"><text
           transform="matrix(1,0,0,-1,160.813,257)"
           style="font-variant:normal;font-weight:normal;font-size:21px;font-family:'Times New Roman';-inkscape-font-specification:Times-Roman;writing-mode:lr-tb;fill:#000000;fill-opacity:1;fill-rule:nonzero;stroke:none"
           id="text130"><tspan
             x="0 11.844 28.181999 37.506001 43.344002 49.181999 55.02 65.519997 71.358002 81.858002 92.358002 102.858 113.358 122.682 142.02299 151.347 161.847 171.17101 187.509 198.009 203.847 213.17101 218.42101 228.92101 235.914 246.414"
             y="0"
             sodipodi:role="line"
             id="tspan128">&lt;mailto:donna@example.org&gt;</tspan></text></g><path
         d="m 1558.13,2900 h 1176.56 v 280 H 1558.13 v -280 h 1176.56"
         style="fill:#e6cce6;fill-opacity:1;fill-rule:nonzero;stroke:none"
         id="path132" /><path
         d="m 1558.13,2900 h 1176.56 v 280 H 1558.13 v -280 h 1176.56"
         style="fill:none;stroke:#000000;stroke-width:10;stroke-linecap:butt;stroke-linejoin:miter;stroke-miterlimit:10;stroke-dasharray:none;stroke-opacity:1"
         id="path134" /><g
         id="g136"
         transform="scale(10)"><text
           transform="matrix(1,0,0,-1,160.813,297)"
           style="font-variant:normal;font-weight:normal;font-size:21px;font-family:'Times New Roman';-inkscape-font-specification:Times-Roman;writing-mode:lr-tb;fill:#000000;fill-opacity:1;fill-rule:nonzero;stroke:none"
           id="text140"><tspan
             x="0 8.5679998 19.068001 29.568001 40.068001 50.568001 59.891998 68.459999 87.801003 97.125"
             y="0"
             sodipodi:role="line"
             id="tspan138">&quot;donna&quot;@ed</tspan></text></g><path
         d="m 1376.56,1700 h 1068.28 v 280 H 1376.56 v -280 h 1068.28"
         style="fill:#cce6e6;fill-opacity:1;fill-rule:nonzero;stroke:none"
         id="path142" /><path
         d="m 1376.56,1700 h 1068.28 v 280 H 1376.56 v -280 h 1068.28"
         style="fill:none;stroke:#000000;stroke-width:10;stroke-linecap:butt;stroke-linejoin:miter;stroke-miterlimit:10;stroke-dasharray:none;stroke-opacity:1"
         id="path144" /><g
         id="g146"
         transform="scale(10)"><text
           transform="matrix(1,0,0,-1,142.656,177)"
           style="font-variant:normal;font-weight:normal;font-size:21px;font-family:'Times New Roman';-inkscape-font-specification:Times-Roman;writing-mode:lr-tb;fill:#000000;fill-opacity:1;fill-rule:nonzero;stroke:none"
           id="text150"><tspan
             x="0 6.993 17.493 26.816999 33.810001 39.647999 51.324001 60.647999 67.640999 75.809998 86.309998"
             y="0"
             sodipodi:role="line"
             id="tspan148">foaf:Person</tspan></text></g><path
         d="m 1271.56,3300 h 1068.28 v 280 H 1271.56 v -280 h 1068.28"
         style="fill:#cce6e6;fill-opacity:1;fill-rule:nonzero;stroke:none"
         id="path152" /><path
         d="m 1271.56,3300 h 1068.28 v 280 H 1271.56 v -280 h 1068.28"
         style="fill:none;stroke:#000000;stroke-width:10;stroke-linecap:butt;stroke-linejoin:miter;stroke-miterlimit:10;stroke-dasharray:none;stroke-opacity:1"
         id="path154" /><g
         id="g156"
         transform="scale(10)"><text
           transform="matrix(1,0,0,-1,132.156,337)"
           style="font-variant:normal;font-weight:normal;font-size:21px;font-family:'Times New Roman';-inkscape-font-specification:Times-Roman;writing-mode:lr-tb;fill:#000000;fill-opacity:1;fill-rule:nonzero;stroke:none"
           id="text160"><tspan
             x="0 6.993 17.493 26.816999 33.810001 39.647999 51.324001 60.647999 67.640999 75.809998 86.309998"
             y="0"
             sodipodi:role="line"
             id="tspan158">foaf:Person</tspan></text></g></g></g></svg>
